<svg width="165" height="32" fill="none" xmlns="http://www.w3.org/2000/svg"><path d="M10.453 31.507H4.235v-15.53H0V10.92h4.235V7.322C4.235 3.058 6.108 0 12.31 0c1.311 0 3.37.265 3.37.265V4.96h-2.162c-2.204 0-3.064.672-3.064 2.528v3.432h5.144l-.458 5.056h-4.686v15.53Zm14.266-20.992c-.09 0-.184.004-.276.006-5.766 0-8.403 4.345-8.403 10.514 0 7.77 3.421 10.88 8.448 10.88 2.875 0 4.765-1.213 5.913-3.476v3.07h5.914V10.922H30.4v3.166c-.937-2.037-2.88-3.548-5.682-3.572Zm1.503 4.865c2.422 0 3.875 1.693 3.875 4.571l.006 2.94c0 1.94-1.2 4.21-3.88 4.21-4.12 0-4.01-4.457-4.01-5.942 0-4.994 2.194-5.779 4.01-5.779Zm12.481 5.836c0-2.501-.12-10.687 10.524-10.687 4.272 0 6.056 1.361 6.056 1.361l-1.434 4.456s-1.781-.983-4.103-.983c-2.973 0-4.87 1.728-4.87 4.767l.003 2.179c0 2.92 1.83 4.87 4.873 4.87 2.115 0 4.064-.993 4.064-.993l1.43 4.363s-1.63 1.37-5.99 1.37c-10.133 0-10.553-7.344-10.553-10.703Zm51.254-10.695c5.765 0 8.444 4.345 8.444 10.514 0 7.77-3.421 10.88-8.448 10.88-2.876 0-5.001-1.212-6.15-3.476v3.07l-5.839-.002V.626l6.2-.542V13.81c.894-2.401 3.835-3.288 5.793-3.288Zm-1.738 4.86c-2.422 0-4.055 1.692-4.055 4.57l-.006 2.94c-.004 1.94 1.131 4.21 4.06 4.21 4.12 0 4.01-4.457 4.01-5.942 0-4.994-2.194-5.779-4.01-5.779ZM66.04 10.537c-6.539 0-9.991 3.573-9.991 9.921v1.18c0 8.24 4.848 10.361 10.628 10.361 5.617 0 8.16-1.575 8.16-1.575l-1.16-4.192s-2.991 1.275-6.257 1.275c-3.386 0-4.842-.865-5.215-4.125h13.128v-3.364c0-6.887-3.875-9.481-9.293-9.481Zm.158 4.199c2.263 0 3.73 1.39 3.65 4.616h-7.632c.132-3.395 1.714-4.616 3.982-4.616Zm44.565-4.227c-6.715 0-10.25 3.792-10.25 10.587 0 9.323 6.094 10.824 10.261 10.824 6.101 0 10.16-3.291 10.16-10.74 0-7.752-4.563-10.671-10.171-10.671Zm-.084 4.887c2.952 0 4.122 2.214 4.122 4.735v2.167c0 3.053-1.637 4.82-4.134 4.82-2.335 0-3.976-1.652-3.976-4.82v-2.167c0-3.378 1.953-4.735 3.988-4.735Zm22.606-4.887c-6.715 0-10.25 3.792-10.25 10.587 0 9.323 6.094 10.824 10.262 10.824 6.1 0 10.16-3.291 10.16-10.74 0-7.752-4.564-10.671-10.172-10.671Zm-.084 4.887c2.953 0 4.122 2.214 4.122 4.735v2.167c0 3.053-1.637 4.82-4.133 4.82-2.335 0-3.977-1.652-3.977-4.82v-2.167c0-3.378 1.953-4.735 3.988-4.735Zm12.598 16.11V.626l6.218-.542v20.699l6.169-9.863h6.566l-6.435 10.215L165 31.507h-6.585l-6.398-10.072v10.072h-6.218Z" fill="#1877F2"/></svg>