<svg width="160" height="32" fill="none" xmlns="http://www.w3.org/2000/svg"><path d="M8.622 31.663c-3.116-.84-5.976-3.206-7.44-6.157C.063 23.244.064 23.26.06 12.866-.072 3.874-.022 3.584.578 2.717 1.85.594 4.659.141 6.5 1.761c1.292 1.137 1.395 1.524 1.395 5.246v3.227h5.43c3.322 0 5.747.068 6.245.175 2.834.607 3.91 3.996 1.942 6.116-.232.25-.71.61-1.061.8-.618.333-.847.347-6.598.394l-5.958.049v1.44c0 2.093.217 2.778 1.19 3.75 1.134 1.134 1.437 1.188 6.758 1.192 4.128.003 4.5.027 5.167.33 2.535 1.146 3.166 4.2 1.297 6.272-1.092 1.212-1.164 1.224-7.214 1.217-4.723-.005-5.49-.042-6.47-.306Zm24.181.069c-2.46-.596-5-2.465-6.552-4.822-1.43-2.173-1.709-3.701-1.716-9.41-.007-4.924.092-5.544 1.04-6.52.877-.902 1.435-1.136 2.725-1.141.985-.004 1.234.058 1.915.48.485.3.968.781 1.267 1.266.6 1.04.49 1.475.564 5.752.079 4.868.088 4.983.455 5.574 1.241 1.995 3.806 2.289 5.508.63.983-.956 1.075-1.519 1.075-6.546 0-4.134.018-4.412.338-5.048.64-1.274 1.567-1.95 2.938-2.137 1.467-.201 3.049.664 3.807 2.08.338.632.358.891.434 5.552-.027 3.878.155 5.013.521 5.556 1.17 1.767 3.631 2.147 5.167.798 1.102-.966 1.1-.963 1.191-6.366.078-4.637.1-4.91.435-5.54 1.407-2.643 4.968-2.81 6.517-.304 1.002 1.388.563 4.326.563 6.22.073 2.494-.073 5.69-.51 6.676-1.186 3.347-3.828 6.006-7.006 7.05-1.442.475-4.62.588-6.051.217a11.187 11.187 0 0 1-3.711-1.703l-.954-.669-.954.67c-1.154.808-2.322 1.357-3.598 1.688-1.19.309-4.128.307-5.408-.003Zm33.219.023c-.729-.317-1.639-1.174-2.037-1.916-.347-.65-.35-.722-.35-8.89 0-7.862.014-8.265.314-8.869 1.245-2.511 4.461-3.076 6.411-1.127 1.213 1.213 1.21 1.183 1.158 10.254-.045 7.829-.052 7.989-.392 8.616-.446.826-1.258 1.598-2.008 1.911-.725.303-2.423.314-3.096.021Zm16.784-.09c-3.555-.932-6.65-3.74-7.958-7.22-.705-1.877-.76-2.834-.707-12.132.05-8.576.056-8.725.395-9.355 1.694-3.139 6.331-2.741 7.337.629.17.569.235 1.602.235 3.703v2.915l3.799.058c3.512.053 3.847.083 4.438.4 2.78 1.486 2.793 5.173.023 6.652-.621.332-.901.358-4.474.408l-3.812.053.053 1.866c.062 2.178.31 2.83 1.39 3.659.947.725 1.543.843 4.261.846 2.181.002 2.473.037 3.208.38 3.072 1.43 3.069 5.76-.005 7.156-.95.431-6.515.42-8.183-.018Zm20.362.008c-4.027-1.101-7.334-4.484-8.377-8.57-.257-1.005-.285-2.019-.286-10.23.06-8.524-.362-8.19.436-9.945.92-1.743 2.817-2.51 4.826-1.953.837.232 2.246 1.641 2.479 2.478.096.349.173 1.985.174 3.703l.001 3.078h3.257c3.73 0 4.721.139 5.62.784 1.946 1.398 1.99 4.53.083 5.912-.951.689-1.851.82-5.609.82h-3.351v1.448c0 1.908.219 2.71.974 3.568 1.03 1.17 1.411 1.28 4.717 1.377 2.877.083 2.896.086 3.679.569.896.553 1.725 1.776 1.885 2.781.233 1.456-.53 3.095-1.845 3.966l-.669.443-3.451.035c-2.946.03-3.611-.01-4.543-.264Zm19.965.072c-2.338-.63-4.061-1.668-5.747-3.46-2.049-2.178-2.973-4.578-2.967-7.707.004-1.911.331-3.406 1.093-4.987.804-1.67 1.687-2.759 2.986-3.686 3.785-2.7 10.511-2.869 14.748-.37 1.517.895 3.094 2.587 3.862 4.146 1.554 3.15 1.398 6.004-.38 6.932-.615.321-.901.336-7.397.38l-6.757.044v.42c0 .654 1.041 1.54 2.187 1.862.782.219 1.725.267 5.26.268 2.393 0 4.566.072 4.887.161 2.753.765 3.305 4.41.882 5.83-.784.53-1.258.397-6.273.394-4.158-.008-5.788-.066-6.384-.227Zm7.032-14.195c-.301-1.009-1.164-1.606-2.743-1.898-1.679-.31-4.027.384-4.48 1.325-.199.415-.39.886-.39.886s1.397.047 3.876.047h3.844l-.107-.36Zm12.07 14.124c-.825-.447-1.702-1.487-1.911-2.264-.123-.454-.162-2.229-.122-5.486.059-4.743.066-4.834.498-6.128 1.135-3.409 4.172-6.236 7.704-7.173 1.299-.345 7.293-.51 8.6-.237 1.816.378 2.996 1.78 2.996 3.557 0 1.515-.689 2.688-1.979 3.37-.608.321-.957.355-4.419.433-3.589.08-3.785.1-4.362.459-.76.473-1.314 1.202-1.539 2.024-.105.386-.175 2.293-.176 4.806 0 4.165 0 4.166-.416 5a3.482 3.482 0 0 1-1.16 1.35c-.653.451-.89.52-1.943.557-.943.034-1.322-.024-1.771-.268ZM65.825 7.421c-2.539-1.265-3-4.606-.892-6.457.822-.72 1.483-.964 2.62-.964 1.592 0 2.828.743 3.542 2.13 1.709 3.315-1.92 6.96-5.27 5.291Z" fill="#3CF"/></svg>